<svg id="Envelope-01" xmlns="http://www.w3.org/2000/svg" width="33.356" height="27.7" viewBox="0 0 33.356 27.7">
  <g id="Group_4" data-name="Group 4">
    <path id="Path_43" data-name="Path 43" d="M29.284,57.8H4.079A4.275,4.275,0,0,0,0,62.245v18.8A4.282,4.282,0,0,0,4.079,85.5h25.2a4.282,4.282,0,0,0,4.079-4.452V62.26A4.274,4.274,0,0,0,29.284,57.8ZM31.5,81.056a2.326,2.326,0,0,1-2.215,2.418H4.079a2.326,2.326,0,0,1-2.215-2.418V62.26a2.326,2.326,0,0,1,2.215-2.418h25.2a2.326,2.326,0,0,1,2.215,2.418l.007,18.8Z" transform="translate(0 -57.8)" fill="#e0353b"/>
    <path id="Path_44" data-name="Path 44" d="M72.941,118.627l8.158-7.985a1.089,1.089,0,0,0,.069-1.439.882.882,0,0,0-1.318-.075L68.6,120.149,66.4,118.009c-.007-.008-.014-.015-.014-.023a1.423,1.423,0,0,0-.152-.143l-8.931-8.731a.877.877,0,0,0-1.318.083,1.082,1.082,0,0,0,.076,1.439l8.254,8.053-8.22,8.407a1.088,1.088,0,0,0-.041,1.439.917.917,0,0,0,.683.324.892.892,0,0,0,.635-.271l8.344-8.52,2.264,2.207a.872.872,0,0,0,1.242-.008l2.326-2.275,8.3,8.6a.885.885,0,0,0,.642.279.9.9,0,0,0,.676-.316,1.088,1.088,0,0,0-.035-1.439Z" transform="translate(-51.905 -105.006)" fill="#e0353b"/>
  </g>
</svg>
