<svg xmlns="http://www.w3.org/2000/svg" width="151.222" height="24.712" viewBox="0 0 151.222 24.712">
  <path id="Path_1" data-name="Path 1" d="M14.359,28.548H11.627a.135.135,0,0,0-.126.126V39.538a.135.135,0,0,0,.126.126h2.732a.135.135,0,0,0,.126-.126V28.674A.135.135,0,0,0,14.359,28.548ZM12.978,23.43a1.507,1.507,0,1,0,1.507,1.507A1.508,1.508,0,0,0,12.978,23.43Zm9.8,5.15a5.135,5.135,0,0,0-.691-.063,4.362,4.362,0,0,0-2.1.534.467.467,0,0,1-.283.063.739.739,0,0,1-.251-.063.528.528,0,0,1-.283-.408.135.135,0,0,0-.126-.126H16.306a.135.135,0,0,0-.126.126V39.507a.135.135,0,0,0,.126.126h2.732a.135.135,0,0,0,.126-.126v-6.06a1.916,1.916,0,0,1,3.831,0v6.092a.135.135,0,0,0,.126.126h2.732a.135.135,0,0,0,.126-.126V32.253A3.587,3.587,0,0,0,25.1,29.9,3.638,3.638,0,0,0,22.774,28.579ZM28.395,18.5H10.905A3.726,3.726,0,0,0,7.2,22.174V39.538a3.706,3.706,0,0,0,3.705,3.674h17.49A3.726,3.726,0,0,0,32.1,39.538v-17.4A3.741,3.741,0,0,0,28.395,18.5Zm2.229,21.038a2.28,2.28,0,0,1-2.229,2.229H10.905a2.238,2.238,0,0,1-2.229-2.229v-17.4a2.28,2.28,0,0,1,2.229-2.229h17.49a2.238,2.238,0,0,1,2.229,2.229ZM70.565,18.5H53.075a3.726,3.726,0,0,0-3.705,3.674V39.538a3.706,3.706,0,0,0,3.705,3.674h17.49a3.726,3.726,0,0,0,3.705-3.674v-17.4A3.72,3.72,0,0,0,70.565,18.5Zm2.229,21.038a2.28,2.28,0,0,1-2.229,2.229H53.075a2.238,2.238,0,0,1-2.229-2.229v-17.4a2.28,2.28,0,0,1,2.229-2.229h17.49a2.238,2.238,0,0,1,2.229,2.229ZM112.735,18.5H95.245a3.726,3.726,0,0,0-3.705,3.674V39.538a3.706,3.706,0,0,0,3.705,3.674h17.49a3.726,3.726,0,0,0,3.705-3.674v-17.4A3.72,3.72,0,0,0,112.735,18.5Zm2.229,21.038a2.28,2.28,0,0,1-2.229,2.229H95.245a2.238,2.238,0,0,1-2.229-2.229v-17.4a2.28,2.28,0,0,1,2.229-2.229h17.49a2.238,2.238,0,0,1,2.229,2.229ZM154.717,18.5h-17.49a3.726,3.726,0,0,0-3.705,3.674V39.538a3.706,3.706,0,0,0,3.705,3.674h17.49a3.726,3.726,0,0,0,3.705-3.674v-17.4A3.72,3.72,0,0,0,154.717,18.5Zm2.229,21.038a2.28,2.28,0,0,1-2.229,2.229h-5.024V33.823h3.454l.565-3.454h-4.019V27.951a1.643,1.643,0,0,1,1.7-1.664h2.324V22.833h-2.324a5.159,5.159,0,0,0-5.181,5.15v2.386h-3.391v3.454h3.391v7.944h-8.949a2.238,2.238,0,0,1-2.229-2.229v-17.4a2.28,2.28,0,0,1,2.229-2.229h17.458a2.238,2.238,0,0,1,2.229,2.229ZM61.836,24.215a6.626,6.626,0,1,0,6.688,6.625A6.681,6.681,0,0,0,61.836,24.215Zm0,10.488A3.862,3.862,0,1,1,65.73,30.84,3.886,3.886,0,0,1,61.836,34.7Zm7.5-12.905A1.488,1.488,0,0,0,67.833,23.3a1.508,1.508,0,0,0,1.507,1.507A1.488,1.488,0,0,0,70.848,23.3,1.508,1.508,0,0,0,69.341,21.8ZM112.3,24.278a7.574,7.574,0,0,1-2.2.848,3.255,3.255,0,0,0-2.512-1.068,3.444,3.444,0,0,0-2.449,1,3.32,3.32,0,0,0-1,2.418,2.827,2.827,0,0,0,.094.785,9.8,9.8,0,0,1-3.988-1.068,9.959,9.959,0,0,1-3.171-2.543,3.4,3.4,0,0,0-.471,1.727A3.2,3.2,0,0,0,98.1,29.239a3.75,3.75,0,0,1-1.633-.44v.031A3.263,3.263,0,0,0,97.286,31,3.514,3.514,0,0,0,99.3,32.19a2.918,2.918,0,0,1-.848.126c-.157,0-.345-.031-.628-.063a3.487,3.487,0,0,0,3.234,2.386,6.934,6.934,0,0,1-4.3,1.476,6.63,6.63,0,0,1-.816-.063,9.677,9.677,0,0,0,5.307,1.539,10.35,10.35,0,0,0,3.454-.565,9.016,9.016,0,0,0,2.763-1.539,11.183,11.183,0,0,0,1.978-2.229,9.112,9.112,0,0,0,1.225-2.638,9.354,9.354,0,0,0,.408-2.763,1.668,1.668,0,0,0-.031-.44,7.189,7.189,0,0,0,1.727-1.79,7.148,7.148,0,0,1-1.978.565A3.423,3.423,0,0,0,112.3,24.278Z" transform="translate(-7.2 -18.5)" fill="#7b7b7b"/>
</svg>
