<svg xmlns="http://www.w3.org/2000/svg" xmlns:xlink="http://www.w3.org/1999/xlink" width="723" height="192" viewBox="0 0 723 192">
  <defs>
    <clipPath id="clip-path">
      <rect id="Rectangle_39" data-name="Rectangle 39" width="723" height="192" transform="translate(0 238)" fill="#b4b4b4"/>
    </clipPath>
  </defs>
  <g id="Mask_Group_3" data-name="Mask Group 3" transform="translate(0 -238)" clip-path="url(#clip-path)">
    <g id="Group_8" data-name="Group 8" transform="translate(57.699 123.66)" opacity="0.359">
      <path id="Path_41" data-name="Path 41" d="M142.07,288.4C128.878,274.546,37.187,166.365,13.44,138.66a9.169,9.169,0,0,1,.66-12.533l1.979-1.979a8.814,8.814,0,0,1,13.193.66L168.456,276.525c4.618,4.617,12.533,5.277,17.151.66s5.277-12.533.66-17.151L46.422,107c-3.3-3.958-3.3-9.895.66-13.193h0a10.032,10.032,0,0,1,13.193,0L212.653,248.161c4.617,4.618,12.533,5.277,17.151.66h0c4.618-4.617,5.277-12.533.66-17.151L82.043,73.355c-3.3-3.958-3.3-9.895.66-13.193l.66-.66a10.032,10.032,0,0,1,13.193,0L243,205.284c4.618,4.618,12.533,5.277,17.151.66s5.277-12.533.66-17.151L114.365,43.671c-3.958-3.958-3.958-9.895,0-13.193l1.979-1.979a9.175,9.175,0,0,1,12.533,0C155.923,53.565,260.147,149.214,273.34,163.066c16.491,17.151,46.175,42.877,54.091,81.136s-14.512,49.473,21.109,85.754c29.024,29.684,202.511,203.171,269.795,270.454a37.051,37.051,0,0,1-.66,53.431h0c-15.172,14.512-39.579,13.852-53.431-1.319C499.6,581.941,333.368,402.518,305,371.514c-34.3-36.94-46.835-15.172-84.434-24.407C182.969,336.553,157.9,305.55,142.07,288.4Z" transform="translate(-11.271 -26.025)" fill="#bc2227"/>
      <path id="Path_42" data-name="Path 42" d="M506.862,288.6c13.193-13.852,104.883-122.034,128.631-149.739a9.169,9.169,0,0,0-.66-12.533l-1.979-1.979a8.814,8.814,0,0,0-13.193.66L480.476,276.725c-4.618,4.617-12.533,5.277-17.151.66s-5.277-12.533-.66-17.151L602.51,107.856c3.3-3.958,3.3-9.895-.66-13.193h0a10.032,10.032,0,0,0-13.193,0L435.62,249.02c-4.617,4.618-12.533,5.277-17.151.66h0c-4.617-4.617-5.277-12.533-.66-17.151L565.57,74.214c3.3-3.958,3.3-9.895-.659-13.193l-.66-.66a10.032,10.032,0,0,0-13.193,0L405.936,205.483c-4.618,4.618-12.533,5.277-17.151.66s-5.277-12.533-.66-17.151L534.567,43.87c3.958-3.958,3.958-9.895,0-13.193L532.588,28.7a9.175,9.175,0,0,0-12.533,0c-28.365,23.747-131.929,119.4-145.782,133.248-16.491,17.151-46.175,42.877-54.091,81.136s14.512,49.473-21.109,85.754C270.049,358.521,96.562,532.008,29.279,599.292a37.051,37.051,0,0,0,.66,53.431h0c15.172,14.512,39.579,13.853,53.431-1.319C148.015,580.822,314.245,401.4,342.61,370.395c34.3-36.94,46.835-15.172,84.435-24.407C465.3,336.753,490.371,305.749,506.862,288.6Z" transform="translate(27.64 -24.906)" fill="#bc2227"/>
    </g>
  </g>
</svg>
