<svg xmlns="http://www.w3.org/2000/svg" width="81.871" height="30.25" viewBox="0 0 81.871 30.25">
  <path id="Path_1" data-name="Path 1" d="M136.387,18.5H114.978a4.561,4.561,0,0,0-4.536,4.5V44.253a4.536,4.536,0,0,0,4.536,4.5h21.409a4.561,4.561,0,0,0,4.536-4.5V22.959A4.554,4.554,0,0,0,136.387,18.5Zm2.729,25.753a2.791,2.791,0,0,1-2.729,2.729H114.978a2.74,2.74,0,0,1-2.729-2.729V22.959a2.791,2.791,0,0,1,2.729-2.729h21.409a2.74,2.74,0,0,1,2.729,2.729ZM187.777,18.5H166.368a4.561,4.561,0,0,0-4.536,4.5V44.253a4.536,4.536,0,0,0,4.536,4.5h21.409a4.561,4.561,0,0,0,4.536-4.5V22.959A4.554,4.554,0,0,0,187.777,18.5Zm2.729,25.753a2.791,2.791,0,0,1-2.729,2.729h-6.15V37.257h4.228l.692-4.228h-4.92V30.07a2.012,2.012,0,0,1,2.076-2.037h2.844V23.8H183.7a6.316,6.316,0,0,0-6.342,6.3v2.921H173.21v4.228h4.151v9.725H166.406a2.74,2.74,0,0,1-2.729-2.729V22.959a2.791,2.791,0,0,1,2.729-2.729h21.371a2.74,2.74,0,0,1,2.729,2.729Zm-54.658-18.68a9.271,9.271,0,0,1-2.691,1.038,3.984,3.984,0,0,0-3.075-1.307,4.216,4.216,0,0,0-3,1.23,4.064,4.064,0,0,0-1.23,2.96,3.461,3.461,0,0,0,.115.961,11.99,11.99,0,0,1-4.882-1.307,12.191,12.191,0,0,1-3.882-3.113,4.166,4.166,0,0,0-.577,2.114,3.916,3.916,0,0,0,1.845,3.5,4.591,4.591,0,0,1-2-.538v.038a4,4,0,0,0,1,2.652,4.3,4.3,0,0,0,2.46,1.461,3.573,3.573,0,0,1-1.038.154c-.192,0-.423-.038-.769-.077a4.269,4.269,0,0,0,3.959,2.921,8.488,8.488,0,0,1-5.266,1.807,8.117,8.117,0,0,1-1-.077,11.845,11.845,0,0,0,6.5,1.883,12.67,12.67,0,0,0,4.228-.692,11.036,11.036,0,0,0,3.382-1.883,13.69,13.69,0,0,0,2.422-2.729,11.154,11.154,0,0,0,1.5-3.229,11.45,11.45,0,0,0,.5-3.382,2.042,2.042,0,0,0-.038-.538,8.8,8.8,0,0,0,2.114-2.191,8.751,8.751,0,0,1-2.422.692A4.19,4.19,0,0,0,135.849,25.572Z" transform="translate(-110.442 -18.5)" fill="#e63d42"/>
</svg>
