<svg id="Group_6" data-name="Group 6" xmlns="http://www.w3.org/2000/svg" width="40.41" height="40.532" viewBox="0 0 40.41 40.532">
  <path id="Path_46" data-name="Path 46" d="M48.1,39.44a1,1,0,0,0-1.008,1.008v9.014a3.043,3.043,0,0,1-3.024,3.054H15.841a3.043,3.043,0,0,1-3.024-3.054V23.014a3.043,3.043,0,0,1,3.024-3.054h8.954a1.008,1.008,0,0,0,0-2.016H15.841a5.062,5.062,0,0,0-5.041,5.07V49.462a5.062,5.062,0,0,0,5.041,5.07H44.068a5.062,5.062,0,0,0,5.041-5.07V40.448A1,1,0,0,0,48.1,39.44Zm1.779-22.92-1.186-1.186a4.51,4.51,0,0,0-6.4,0L24.35,33.421a1.117,1.117,0,0,0-.267.445l-2.372,8.6a.986.986,0,0,0,.267.978,1,1,0,0,0,.978.267l8.51-2.372a1.117,1.117,0,0,0,.445-.267L49.85,22.984A4.555,4.555,0,0,0,49.879,16.52ZM24.143,41.308,25.6,36.03l3.8,3.825Zm7.146-2.431L26.544,34.1,41.221,19.278l4.744,4.774ZM48.456,21.561l-1.067,1.067-4.744-4.774,1.067-1.067a2.523,2.523,0,0,1,3.558,0l1.186,1.186A2.559,2.559,0,0,1,48.456,21.561Z" transform="translate(-10.8 -14)" fill="#e73d43"/>
</svg>
