<svg xmlns="http://www.w3.org/2000/svg" width="501.992" height="73.19" viewBox="0 0 501.992 73.19">
  <g id="GAGF_Logo" data-name="GAGF Logo" transform="translate(0.313 -110.183)">
    <g id="GAGF_Logo-2" data-name="GAGF Logo" transform="translate(-0.313 117.818)">
      <path id="Path_2" data-name="Path 2" d="M154.861,30.1,145.7,50.094h17.892Z" transform="translate(-67.181 -13.879)" fill="#d92128"/>
      <path id="Path_3" data-name="Path 3" d="M62.447,41.927a24.751,24.751,0,0,1-5.174,8.838A26.4,26.4,0,0,1,44.609,58.9H65.734L93.218,0H45.633a28.063,28.063,0,0,1,4.473,1.671,37.823,37.823,0,0,1,11.263,9.161l-6.305,6.09c-4.85-6.413-10.724-9.646-17.676-9.646a21.015,21.015,0,0,0-15.682,6.467A21.486,21.486,0,0,0,15.4,29.586a20.948,20.948,0,0,0,7.06,16.221c4.419,3.934,9.161,5.928,14.281,5.928a17.772,17.772,0,0,0,11.8-4.419,15.48,15.48,0,0,0,5.82-10.67H39.7V28.239H64.063v1.94A40.717,40.717,0,0,1,62.447,41.927Z" transform="translate(-7.101)" fill="#d92128"/>
      <path id="Path_4" data-name="Path 4" d="M158.4,82.7H133.175L126.6,97.035h37.993Z" transform="translate(-58.374 -38.132)" fill="#d92128"/>
      <path id="Path_5" data-name="Path 5" d="M269.706,1.671a37.822,37.822,0,0,1,11.263,9.161l-6.305,6.09c-4.85-6.413-10.724-9.646-17.676-9.646a21.015,21.015,0,0,0-15.682,6.467A21.486,21.486,0,0,0,235,29.586a20.948,20.948,0,0,0,7.06,16.221c4.419,3.934,9.161,5.928,14.281,5.928a17.772,17.772,0,0,0,11.8-4.419,15.48,15.48,0,0,0,5.82-10.67H259.251V28.239H283.61v1.94a40.8,40.8,0,0,1-1.563,11.748,24.751,24.751,0,0,1-5.174,8.838A26.4,26.4,0,0,1,264.209,58.9h30.556V0H265.233A28.061,28.061,0,0,1,269.706,1.671Z" transform="translate(-108.356)" fill="#d92128"/>
      <path id="Path_6" data-name="Path 6" d="M8.353,7.814A29.289,29.289,0,0,1,21.5,0H0V23.065A29.376,29.376,0,0,1,8.353,7.814Z" fill="#d92128"/>
      <rect id="Rectangle_7" data-name="Rectangle 7" width="20.532" height="14.173" transform="translate(195.301 8.353)" fill="#d92128"/>
      <rect id="Rectangle_8" data-name="Rectangle 8" width="20.532" height="28.023" transform="translate(195.301 30.879)" fill="#d92128"/>
      <path id="Path_7" data-name="Path 7" d="M8.191,81.889A29.436,29.436,0,0,1,0,66.8V89.7H21.125A29.492,29.492,0,0,1,8.191,81.889Z" transform="translate(0 -30.801)" fill="#d92128"/>
      <path id="Path_8" data-name="Path 8" d="M203.023,51.135a29.578,29.578,0,0,1-8.784-21.5,29.358,29.358,0,0,1,8.946-21.718A29.577,29.577,0,0,1,216.334.1H166L192.46,59h23.5A30.127,30.127,0,0,1,203.023,51.135Z" transform="translate(-76.541 -0.046)" fill="#d92128"/>
    </g>
    <g id="GAGF_Logo_2" data-name="GAGF Logo 2" transform="translate(271.809 98.883)">
      <g id="Group_2" data-name="Group 2" transform="translate(84.42 11.3)">
        <path id="Path_9" data-name="Path 9" d="M147.242,19.613h6.036v.464a8.763,8.763,0,0,1-.406,2.9,6.627,6.627,0,0,1-6.443,4.469,7.152,7.152,0,0,1-5.224-2.206,7.637,7.637,0,0,1,0-10.738A7.693,7.693,0,0,1,149.8,13a9.564,9.564,0,0,1,2.786,2.264l-1.567,1.509a5.422,5.422,0,0,0-4.353-2.38,5.086,5.086,0,0,0-3.889,1.625,5.382,5.382,0,0,0-1.567,3.947,5.445,5.445,0,0,0,5.282,5.456,4.225,4.225,0,0,0,2.9-1.1,3.988,3.988,0,0,0,1.451-2.67h-3.657V19.613Z" transform="translate(-138.013 -11.72)" fill="#da2128"/>
        <path id="Path_10" data-name="Path 10" d="M170.906,12.8V25.337h4.3v2.089h-6.5V12.8Z" transform="translate(-150.475 -11.929)" fill="#da2128"/>
        <path id="Path_11" data-name="Path 11" d="M181.5,19.887a7.115,7.115,0,0,1,2.264-5.282,7.545,7.545,0,0,1,5.4-2.206,7.317,7.317,0,0,1,5.34,2.206,7.241,7.241,0,0,1,2.264,5.34,7.15,7.15,0,0,1-2.264,5.34,7.727,7.727,0,0,1-10.563.232A7.277,7.277,0,0,1,181.5,19.887Zm2.264,0a5.453,5.453,0,0,0,5.34,5.572A5.354,5.354,0,0,0,194.559,20a5.418,5.418,0,0,0-9.229-3.889A4.992,4.992,0,0,0,183.764,19.887Z" transform="translate(-155.846 -11.762)" fill="#da2128"/>
        <path id="Path_12" data-name="Path 12" d="M212.9,27.426V12.8h2.206a8.4,8.4,0,0,1,2.322.232,4.1,4.1,0,0,1,1.509.755,3.562,3.562,0,0,1,.987,1.393,4.372,4.372,0,0,1,.348,1.683,3.5,3.5,0,0,1-1.219,2.67,4.053,4.053,0,0,1,1.857,1.393,3.745,3.745,0,0,1,.7,2.264,3.9,3.9,0,0,1-1.219,2.9,3.965,3.965,0,0,1-1.625.987,9.819,9.819,0,0,1-2.5.29H212.9Zm2.206-8.358h.7a2.664,2.664,0,0,0,1.8-.522,1.989,1.989,0,0,0,.58-1.625,1.937,1.937,0,0,0-.58-1.567,2.539,2.539,0,0,0-1.683-.522h-.755v4.237Zm0,6.268h1.335a3.342,3.342,0,0,0,2.206-.58,2.16,2.16,0,0,0,.755-1.625,1.987,1.987,0,0,0-.7-1.567,3.8,3.8,0,0,0-2.5-.638h-1.1Z" transform="translate(-169.021 -11.929)" fill="#da2128"/>
        <path id="Path_13" data-name="Path 13" d="M239.973,23.256H233.7L232.08,26.8H229.7l7.255-15.5,6.965,15.5h-2.438Zm-.871-2.089-2.148-4.992-2.264,4.992Z" transform="translate(-176.07 -11.3)" fill="#da2128"/>
        <path id="Path_14" data-name="Path 14" d="M259.906,12.8V25.337h4.3v2.089h-6.5V12.8Z" transform="translate(-187.819 -11.929)" fill="#da2128"/>
        <path id="Path_15" data-name="Path 15" d="M147.573,55.756H141.3L139.68,59.3H137.3l7.255-15.5,6.965,15.5h-2.438Zm-.871-2.089-2.148-4.992-2.264,4.992Z" transform="translate(-137.3 -24.937)" fill="#da2128"/>
        <path id="Path_16" data-name="Path 16" d="M167.506,45.3V57.837H171.8v2.089h-6.5V45.3Z" transform="translate(-149.049 -25.566)" fill="#da2128"/>
        <path id="Path_17" data-name="Path 17" d="M180.4,59.926V45.3h2.206a8.4,8.4,0,0,1,2.322.232,4.1,4.1,0,0,1,1.509.755,3.562,3.562,0,0,1,.987,1.393,4.372,4.372,0,0,1,.348,1.683,3.5,3.5,0,0,1-1.219,2.67,4.053,4.053,0,0,1,1.857,1.393,3.744,3.744,0,0,1,.7,2.264,3.9,3.9,0,0,1-1.219,2.9,3.964,3.964,0,0,1-1.625.987,9.818,9.818,0,0,1-2.5.29H180.4Zm2.206-8.358h.7a2.664,2.664,0,0,0,1.8-.522,1.989,1.989,0,0,0,.58-1.625,1.937,1.937,0,0,0-.58-1.567,2.539,2.539,0,0,0-1.683-.522h-.755v4.237Zm0,6.268h1.335a3.342,3.342,0,0,0,2.206-.58,2.159,2.159,0,0,0,.755-1.625,1.987,1.987,0,0,0-.7-1.567,3.8,3.8,0,0,0-2.5-.638h-1.1v4.411Z" transform="translate(-155.384 -25.566)" fill="#da2128"/>
        <path id="Path_18" data-name="Path 18" d="M207.473,55.756H201.2L199.58,59.3H197.2l7.255-15.5,6.965,15.5h-2.438Zm-.871-2.089-2.147-4.992-2.264,4.992Z" transform="translate(-162.433 -24.937)" fill="#da2128"/>
        <path id="Path_19" data-name="Path 19" d="M225.2,59.213V43.6l10.68,11.144V44.587h2.206v15.5L227.406,49V59.213Z" transform="translate(-174.182 -24.853)" fill="#da2128"/>
        <path id="Path_20" data-name="Path 20" d="M255.906,45.3V59.926H253.7V45.3Z" transform="translate(-186.14 -25.566)" fill="#da2128"/>
        <path id="Path_21" data-name="Path 21" d="M271.215,55.756h-6.268L263.322,59.3H261l7.255-15.5,6.965,15.5h-2.438Zm-.871-2.089L268.2,48.675l-2.264,4.992Z" transform="translate(-189.203 -24.937)" fill="#da2128"/>
        <path id="Path_22" data-name="Path 22" d="M288.9,59.213V43.6l10.68,11.144V44.587h2.206v15.5L291.106,49V59.213Z" transform="translate(-200.91 -24.853)" fill="#da2128"/>
        <path id="Path_23" data-name="Path 23" d="M147.242,84.613h6.036v.464a8.763,8.763,0,0,1-.406,2.9,6.627,6.627,0,0,1-6.443,4.469,7.152,7.152,0,0,1-5.224-2.206,7.637,7.637,0,0,1,0-10.738A7.693,7.693,0,0,1,149.8,78a9.564,9.564,0,0,1,2.786,2.264l-1.567,1.509a5.422,5.422,0,0,0-4.353-2.38,5.086,5.086,0,0,0-3.889,1.625,5.382,5.382,0,0,0-1.567,3.947,5.445,5.445,0,0,0,5.282,5.456,4.225,4.225,0,0,0,2.9-1.1,3.988,3.988,0,0,0,1.451-2.67h-3.657V84.613Z" transform="translate(-138.013 -38.993)" fill="#da2128"/>
        <path id="Path_24" data-name="Path 24" d="M174.873,88.256H168.6L166.98,91.8H164.6l7.255-15.5,6.965,15.5h-2.38ZM174,86.167l-2.148-4.992-2.264,4.992Z" transform="translate(-148.755 -38.573)" fill="#da2128"/>
        <path id="Path_25" data-name="Path 25" d="M200.338,79.836l-1.8,1.045a3.462,3.462,0,0,0-.929-1.161,2.359,2.359,0,0,0-1.219-.29,2.17,2.17,0,0,0-1.509.522,1.567,1.567,0,0,0-.58,1.277q0,1.045,1.567,1.741l1.451.58a6.429,6.429,0,0,1,2.612,1.741,4.072,4.072,0,0,1,.813,2.554,4.506,4.506,0,0,1-1.335,3.308,4.737,4.737,0,0,1-3.366,1.335,4.405,4.405,0,0,1-3.134-1.1,5.029,5.029,0,0,1-1.509-3.192l2.206-.464a4.441,4.441,0,0,0,.522,1.8,2.251,2.251,0,0,0,1.973.929,2.38,2.38,0,0,0,2.438-2.438,2.942,2.942,0,0,0-.116-.755,1.384,1.384,0,0,0-.348-.638,6.354,6.354,0,0,0-.638-.58c-.29-.174-.58-.348-.929-.522l-1.393-.58c-1.973-.871-3.018-2.089-3.018-3.715a3.328,3.328,0,0,1,1.277-2.728,4.405,4.405,0,0,1,3.134-1.1A4.119,4.119,0,0,1,200.338,79.836Z" transform="translate(-160 -39.033)" fill="#da2128"/>
        <path id="Path_26" data-name="Path 26" d="M215.772,79.889V92.426h-2.206V79.889H210.2V77.8h8.938v2.089Z" transform="translate(-167.888 -39.203)" fill="#da2128"/>
        <path id="Path_27" data-name="Path 27" d="M234.234,86.216l4.527,6.21h-2.67l-4.179-5.978h-.406v5.978H229.3V77.8h2.554a6.319,6.319,0,0,1,4.179,1.1,4.011,4.011,0,0,1,1.393,3.192,4.214,4.214,0,0,1-.871,2.67A3.918,3.918,0,0,1,234.234,86.216Zm-2.728-1.683h.7c2.089,0,3.134-.813,3.134-2.38,0-1.509-1.045-2.264-3.018-2.264h-.813Z" transform="translate(-175.902 -39.203)" fill="#da2128"/>
        <path id="Path_28" data-name="Path 28" d="M247.9,84.887a7.115,7.115,0,0,1,2.264-5.282,7.545,7.545,0,0,1,5.4-2.206,7.317,7.317,0,0,1,5.34,2.206,7.241,7.241,0,0,1,2.264,5.34,7.15,7.15,0,0,1-2.264,5.34,7.727,7.727,0,0,1-10.563.232A7.089,7.089,0,0,1,247.9,84.887Zm2.206,0a5.453,5.453,0,0,0,5.34,5.572A5.354,5.354,0,0,0,260.9,85a5.418,5.418,0,0,0-9.228-3.889A4.992,4.992,0,0,0,250.106,84.887Z" transform="translate(-183.707 -39.035)" fill="#da2128"/>
        <path id="Path_29" data-name="Path 29" d="M279.3,91.713V76.1l10.679,11.144V77.087h2.206v15.5L281.506,81.44V91.713Z" transform="translate(-196.882 -38.489)" fill="#da2128"/>
        <path id="Path_30" data-name="Path 30" d="M306.8,84.887a7.115,7.115,0,0,1,2.264-5.282,7.545,7.545,0,0,1,5.4-2.206,7.317,7.317,0,0,1,5.34,2.206,7.241,7.241,0,0,1,2.264,5.34,7.15,7.15,0,0,1-2.264,5.34,7.727,7.727,0,0,1-10.563.232A7.089,7.089,0,0,1,306.8,84.887Zm2.206,0a5.453,5.453,0,0,0,5.34,5.572A5.354,5.354,0,0,0,319.8,85a5.418,5.418,0,0,0-9.229-3.889A4.992,4.992,0,0,0,309.006,84.887Z" transform="translate(-208.421 -39.035)" fill="#da2128"/>
        <path id="Path_31" data-name="Path 31" d="M337.3,91.629,340.376,75.9l4.991,11.376L350.533,75.9l2.844,15.729h-2.263l-1.393-8.822-4.295,9.461-4.237-9.461-1.567,8.822Z" transform="translate(-221.218 -38.406)" fill="#da2128"/>
        <path id="Path_32" data-name="Path 32" d="M372.259,86.1,367.5,77.8h2.554l3.366,5.862,3.366-5.862h2.554l-4.759,8.3v6.326h-2.206V86.1Z" transform="translate(-233.89 -39.203)" fill="#da2128"/>
        <path id="Path_33" data-name="Path 33" d="M147.513,112.389h-5.108v3.482h4.934v2.089h-4.934v6.965H140.2V110.3h7.313Z" transform="translate(-138.517 -52.839)" fill="#da2128"/>
        <path id="Path_34" data-name="Path 34" d="M165.568,112.389h-5.862v3.482h5.688v2.089h-5.688v4.875h5.862v2.089H157.5V110.3h8.068Z" transform="translate(-145.776 -52.839)" fill="#da2128"/>
        <path id="Path_35" data-name="Path 35" d="M184.538,112.336l-1.8,1.045a3.462,3.462,0,0,0-.929-1.161,2.358,2.358,0,0,0-1.219-.29,2.17,2.17,0,0,0-1.509.522,1.567,1.567,0,0,0-.58,1.277q0,1.045,1.567,1.741l1.451.58a6.428,6.428,0,0,1,2.612,1.741,4.072,4.072,0,0,1,.813,2.554,4.506,4.506,0,0,1-1.335,3.308,4.737,4.737,0,0,1-3.366,1.335,4.405,4.405,0,0,1-3.134-1.1,5.029,5.029,0,0,1-1.509-3.192l2.206-.464a4.442,4.442,0,0,0,.522,1.8,2.251,2.251,0,0,0,1.973.929,2.38,2.38,0,0,0,2.438-2.438,2.943,2.943,0,0,0-.116-.755,1.384,1.384,0,0,0-.348-.638,6.355,6.355,0,0,0-.638-.58c-.29-.174-.58-.348-.929-.522l-1.393-.58c-1.973-.871-3.018-2.089-3.018-3.715A3.328,3.328,0,0,1,177.573,111a4.405,4.405,0,0,1,3.134-1.1A4.176,4.176,0,0,1,184.538,112.336Z" transform="translate(-153.37 -52.67)" fill="#da2128"/>
        <path id="Path_36" data-name="Path 36" d="M199.872,112.389v12.537h-2.206V112.389H194.3V110.3h8.938v2.089Z" transform="translate(-161.217 -52.839)" fill="#da2128"/>
        <path id="Path_37" data-name="Path 37" d="M215.606,110.3v14.626H213.4V110.3Z" transform="translate(-169.231 -52.839)" fill="#da2128"/>
        <path id="Path_38" data-name="Path 38" d="M223.222,110.3l4.063,10.1,4.121-10.1h2.438l-6.559,15.729L220.9,110.3h2.322Z" transform="translate(-172.378 -52.839)" fill="#da2128"/>
        <path id="Path_39" data-name="Path 39" d="M251.773,120.756H245.5L243.88,124.3H241.5l7.255-15.5,6.965,15.5h-2.438Zm-.871-2.089-2.148-4.992-2.264,4.992Z" transform="translate(-181.021 -52.21)" fill="#da2128"/>
        <path id="Path_40" data-name="Path 40" d="M271.706,110.3v12.537H276v2.089h-6.5V110.3h2.206Z" transform="translate(-192.77 -52.839)" fill="#da2128"/>
      </g>
      <g id="Group_3" data-name="Group 3" transform="translate(11.271 19.847)">
        <path id="Path_41" data-name="Path 41" d="M22.78,49.111c-1.161-1.219-9.229-10.738-11.318-13.175a.807.807,0,0,1,.058-1.1l.174-.174a.776.776,0,0,1,1.161.058L25.1,48.066a1.068,1.068,0,0,0,1.567-1.451L14.364,33.15a.823.823,0,0,1,.058-1.161h0a.883.883,0,0,1,1.161,0L28.99,45.57a1.088,1.088,0,0,0,1.509.058h0a1.088,1.088,0,0,0,.058-1.509L17.5,30.189a.823.823,0,0,1,.058-1.161l.058-.058a.883.883,0,0,1,1.161,0L31.66,41.8a1.068,1.068,0,1,0,1.567-1.451L20.342,27.578a.775.775,0,0,1,0-1.161l.174-.174a.807.807,0,0,1,1.1,0C24,28.448,33.169,36.864,34.33,38.083c1.451,1.509,4.063,3.773,4.759,7.139s-1.277,4.353,1.857,7.545c2.554,2.612,17.819,17.877,23.739,23.8a3.26,3.26,0,0,1-.058,4.7h0a3.31,3.31,0,0,1-4.7-.116c-5.688-6.21-20.314-22-22.81-24.725C34.1,53.174,33,55.089,29.687,54.276,26.379,53.348,24.173,50.62,22.78,49.111Z" transform="translate(-11.271 -26.025)" fill="#da2128"/>
        <path id="Path_42" data-name="Path 42" d="M61.218,49.311c1.161-1.219,9.229-10.738,11.318-13.175a.807.807,0,0,0-.058-1.1l-.174-.174a.776.776,0,0,0-1.161.058L58.9,48.266a1.068,1.068,0,0,1-1.567-1.451l12.3-13.407a.823.823,0,0,0-.058-1.161h0a.883.883,0,0,0-1.161,0L54.95,45.828a1.088,1.088,0,0,1-1.509.058h0a1.088,1.088,0,0,1-.058-1.509l13-13.93a.823.823,0,0,0-.058-1.161l-.058-.058a.883.883,0,0,0-1.161,0L52.338,42a1.068,1.068,0,1,1-1.567-1.451L63.656,27.778a.775.775,0,0,0,0-1.161l-.174-.174a.807.807,0,0,0-1.1,0c-2.5,2.089-11.608,10.505-12.827,11.724-1.451,1.509-4.063,3.773-4.759,7.139s1.277,4.353-1.857,7.545c-2.554,2.612-17.819,17.877-23.739,23.8a3.26,3.26,0,0,0,.058,4.7h0a3.31,3.31,0,0,0,4.7-.116c5.688-6.21,20.314-22,22.81-24.725,3.018-3.25,4.121-1.335,7.429-2.148C57.562,53.548,59.767,50.82,61.218,49.311Z" transform="translate(-14.189 -26.109)" fill="#da2128"/>
      </g>
    </g>
  </g>
</svg>
