<svg id="GAGF_Logo" data-name="GAGF Logo" xmlns="http://www.w3.org/2000/svg" width="215.833" height="58.957" viewBox="0 0 215.833 58.957">
  <path id="Path_2" data-name="Path 2" d="M154.861,30.1,145.7,50.094h17.892Z" transform="translate(-67.181 -13.879)" fill="#d92128"/>
  <path id="Path_3" data-name="Path 3" d="M62.447,41.927a24.751,24.751,0,0,1-5.174,8.838A26.4,26.4,0,0,1,44.609,58.9H65.734L93.218,0H45.633a28.063,28.063,0,0,1,4.473,1.671,37.823,37.823,0,0,1,11.263,9.161l-6.305,6.09c-4.85-6.413-10.724-9.646-17.676-9.646a21.015,21.015,0,0,0-15.682,6.467A21.486,21.486,0,0,0,15.4,29.586a20.948,20.948,0,0,0,7.06,16.221c4.419,3.934,9.161,5.928,14.281,5.928a17.772,17.772,0,0,0,11.8-4.419,15.48,15.48,0,0,0,5.82-10.67H39.7V28.239H64.063v1.94A40.717,40.717,0,0,1,62.447,41.927Z" transform="translate(-7.101)" fill="#d92128"/>
  <path id="Path_4" data-name="Path 4" d="M158.4,82.7H133.175L126.6,97.035h37.993Z" transform="translate(-58.374 -38.132)" fill="#d92128"/>
  <path id="Path_5" data-name="Path 5" d="M269.706,1.671a37.822,37.822,0,0,1,11.263,9.161l-6.305,6.09c-4.85-6.413-10.724-9.646-17.676-9.646a21.015,21.015,0,0,0-15.682,6.467A21.486,21.486,0,0,0,235,29.586a20.948,20.948,0,0,0,7.06,16.221c4.419,3.934,9.161,5.928,14.281,5.928a17.772,17.772,0,0,0,11.8-4.419,15.48,15.48,0,0,0,5.82-10.67H259.251V28.239H283.61v1.94a40.8,40.8,0,0,1-1.563,11.748,24.751,24.751,0,0,1-5.174,8.838A26.4,26.4,0,0,1,264.209,58.9h30.556V0H265.233A28.061,28.061,0,0,1,269.706,1.671Z" transform="translate(-108.356)" fill="#d92128"/>
  <path id="Path_6" data-name="Path 6" d="M8.353,7.814A29.289,29.289,0,0,1,21.5,0H0V23.065A29.376,29.376,0,0,1,8.353,7.814Z" fill="#d92128"/>
  <rect id="Rectangle_7" data-name="Rectangle 7" width="20.532" height="14.173" transform="translate(195.301 8.353)" fill="#d92128"/>
  <rect id="Rectangle_8" data-name="Rectangle 8" width="20.532" height="28.023" transform="translate(195.301 30.879)" fill="#d92128"/>
  <path id="Path_7" data-name="Path 7" d="M8.191,81.889A29.436,29.436,0,0,1,0,66.8V89.7H21.125A29.492,29.492,0,0,1,8.191,81.889Z" transform="translate(0 -30.801)" fill="#d92128"/>
  <path id="Path_8" data-name="Path 8" d="M203.023,51.135a29.578,29.578,0,0,1-8.784-21.5,29.358,29.358,0,0,1,8.946-21.718A29.577,29.577,0,0,1,216.334.1H166L192.46,59h23.5A30.127,30.127,0,0,1,203.023,51.135Z" transform="translate(-76.541 -0.046)" fill="#d92128"/>
</svg>
