<svg xmlns="http://www.w3.org/2000/svg" xmlns:xlink="http://www.w3.org/1999/xlink" width="1920" height="339" viewBox="0 0 1920 339">
  <defs>
    <clipPath id="clip-path">
      <rect id="Rectangle_16" data-name="Rectangle 16" width="1920" height="339" transform="translate(0 1594)" fill="#e73d43"/>
    </clipPath>
  </defs>
  <g id="Mask_Group_1" data-name="Mask Group 1" transform="translate(0 -1594)" opacity="0.3" clip-path="url(#clip-path)">
    <path id="Path_45" data-name="Path 45" d="M151.985,77.741c2.537-4.47,5.316-9.061,8.336-12.323a32.434,32.434,0,0,1,10.028-8.336c6.282-3.262.725-12.565-5.316-9.3-16.069,8.578-24.163,26.7-30.687,42.769-7.853,19.814-13.652,40.232-21.626,60.046-6.766,16.552-16.069,34.916-31.533,43.977-8.578,4.591-19.451,6.282-29.237,2.537a27.3,27.3,0,0,1-17.881-27.425c.483-13.29,9.061-28.633,22.472-32.379,6.282-1.571,13.048-1.208,18.606,2.537a17.068,17.068,0,0,1,7.37,17.639c-1.208,6.766,9.3,9.786,10.39,2.779a28.976,28.976,0,0,0-23.2-34.191c-14.619-2.537-28.513,3.987-36.849,16.069-9.061,12.565-12.806,30.2-6.524,44.823,6.041,13.531,19.451,21.868,33.949,22.834,23.2,1.812,40.836-14.86,51.709-33.224,11.84-20.418,18.606-43.494,26.217-65.6C142.32,99.609,146.428,88.252,151.985,77.741Zm293.462,6.041a10.048,10.048,0,0,0,3.5-10.269c-.725-2.537-3.02-4.833-5.8-4.833a7.55,7.55,0,0,0-5.558,1.812,9.923,9.923,0,0,0-2.779,9.786A7.025,7.025,0,0,0,445.447,83.782Zm48.447,52.8c-3.02-4.833-6.766-10.753-5.8-16.793.483-4.47,4.47-10.873,8.82-12.565,6.041-2.779,3.987-12.323-3.02-10.511-6.766,1.812-12.565,7.007-17.156,12.082A150.279,150.279,0,0,0,460.912,130.9c-5.678,9.3-10.632,19.089-15.948,28.754a4.018,4.018,0,0,0-1.45,1.691,122.751,122.751,0,0,1-16.673,24.888c-3.987,4.229-11.115,12.082-17.881,9.544-6.282-2.054-3.262-13.048-1.812-17.881,3.02-10.753,7.611-20.9,11.84-31.171,5.558-13.29,11.357-26.217,17.4-39.265,3.02-6.282-6.282-11.6-9.3-5.316-6.282,13.048-11.84,26.459-17.639,39.748-2.3,5.558-4.712,11.115-7.007,16.673a4.871,4.871,0,0,0-1.329,1.691c-7.853,13.894-17.881,26.1-31.291,34.916-4.47,3.02-9.3,5.558-13.894,8.095q1.45-4.168,3.262-8.336c3.5-9.061,7.249-18.364,10.873-27.667.483-.967,16.673-41.44,24.888-59.8a5.4,5.4,0,0,0-1.812-7.491c-2.3-1.208-6.282-.725-7.37,2.054-1.208,2.537-2.3,5.316-3.5,8.095a22.329,22.329,0,0,0-2.3-3.262c-5.074-5.8-13.29-8.578-20.9-8.095-18.606,1.571-33.224,18.364-41.561,33.708a113.722,113.722,0,0,0-11.357,26.58,4.165,4.165,0,0,0-1.208,1.571c-8.336,15.585-22.109,32.983-40.836,36-6.766.967-14.619-.483-19.451-5.558-5.316-5.074-6.524-13.29-6.282-20.176a72.552,72.552,0,0,1,2.3-15.1c22.109,7.249,47.843-4.712,56.663-26.459,3.987-10.028,3.262-23.076-7.37-28.633-9.061-4.712-19.935-2.537-28.029,3.02-8.82,6.282-15.585,15.344-20.9,24.888a97.016,97.016,0,0,0-11.961,30.446,4.835,4.835,0,0,0-1.208,1.45c-8.578,15.827-28.754,46.514-50.622,34.433-13.29-7.249-14.135-26.217-15.827-39.507a28.1,28.1,0,0,0-.483-4.47h.967a61.64,61.64,0,0,0,18.122-2.779,65.446,65.446,0,0,0,28.271-19.089c11.84-13.894,18.122-33.708,16.069-52.072a61.461,61.461,0,0,0-25.975-43.494c-18.364-12.806-42.527-15.1-64.032-12.565C114.412,23.495,93.994,31.469,80.7,47.416,69.831,60.464,61.253,81.849,69.589,98.4c4.833,10.269,16.673,15.585,27.667,14.619a31.11,31.11,0,0,0,25.13-18.606,30.6,30.6,0,0,0,2.779-15.827c-.725-6.766-11.357-7.007-10.873,0,.725,8.578-3.02,17.156-10.632,21.384-7.37,3.987-18.122,2.537-22.955-4.47-4.591-6.282-3.745-14.135-1.812-21.143a50.746,50.746,0,0,1,9.544-19.089c11.115-13.531,27.667-20.66,44.581-23.2,18.606-3.02,39.748-1.45,56.421,8.336A50.614,50.614,0,0,1,213.6,74.358c2.537,14.377-1.208,30.446-9.3,42.769-10.028,14.619-27.425,23.922-44.823,22.834a17.311,17.311,0,0,0-3.987-6.524c-4.229-3.987-12.806-5.8-16.431-.483-3.745,5.074-1.45,11.6,3.987,14.135a26.646,26.646,0,0,0,7.37,2.537v.483c.967,6.282,1.571,13.773,2.537,20.418,2.537,14.619,8.336,29.479,22.955,35.4,21.384,8.578,40.353-8.82,51.951-24.646l.725-1.087a41.343,41.343,0,0,0,3.141,10.632c4.229,9.061,13.048,14.86,22.713,16.31,20.176,3.02,37.453-9.424,49.655-25.009a32.6,32.6,0,0,0,.725,4.953c3.02,13.894,15.585,21.868,29.479,18.364a34.458,34.458,0,0,0,11.357-5.074c-1.208,3.5-2.537,7.007-3.987,10.269-1.571.967-3.5,1.812-5.074,2.779-13.411,7.853-27.425,17.156-37.332,29.479-8.578,10.511-16.069,24.163-13.048,38.178,3.262,13.894,18.606,18.122,29.237,9.544,9.3-7.249,14.377-19.331,18.606-29.962,5.558-13.894,10.873-28.15,16.189-42.286,9.061-4.591,17.881-8.82,26.217-14.377A100.079,100.079,0,0,0,395.067,187.8c-.121,6.524,1.571,13.048,7.611,16.914,9.544,5.8,19.935.483,27.425-6.041a89.383,89.383,0,0,0,14.5-17.035l.362-.362c9.3-13.531,16.069-28.392,24.4-42.286,2.779-4.591,5.558-9.3,8.578-13.773,1.571,10.269,8.578,19.089,13.652,27.425,6.041,9.786,10.269,19.331,6.524,30.687-2.537,8.336-9.544,16.069-18.606,16.552-9.3.483-18.122-3.987-18.606-13.894-.483-6.766-11.357-7.007-10.873,0,.725,10.269,6.282,18.847,15.827,22.593,10.873,4.47,23.438,2.054,32.258-5.316,8.336-7.491,12.806-19.572,12.323-30.687C509,158.688,500.66,147.935,493.895,136.578ZM257.7,122.322c4.833-5.8,11.115-12.323,18.847-13.29,7.249-1.208,13.048,2.779,12.323,10.269-.967,9.3-7.853,17.4-15.344,22.109a35,35,0,0,1-29.479,4.229A91.019,91.019,0,0,1,257.7,122.322Zm70.557,121.9c-3.5,9.3-6.766,19.089-11.84,27.908-2.3,3.987-5.074,8.336-9.061,10.873-2.3,1.571-6.766,2.779-9.544-.725-3.5-4.712-1.812-12.323,0-17.156a49.879,49.879,0,0,1,8.095-13.894c7.611-10.028,18.122-17.4,29-24.163C332.605,232.627,330.551,238.426,328.256,244.225Zm7.128-50.743c-7.249,3.745-16.189,3.02-19.451-5.074-5.074-12.565.483-29.117,5.558-40.473,6.282-14.135,15.585-28.633,29.721-35.762,5.316-2.537,11.84-3.5,17.156-.483,6.524,3.745,7.249,10.511,5.558,16.914-.483,2.054-9.544,23.438-14.135,35.157C354.715,175.36,346.982,187.442,335.384,193.483Zm402.559-33.466c-7.249,13.048-16.431,27.184-29.479,34.916-3.987,2.054-8.336,3.745-12.565,2.779-4.229-1.208-7.37-3.987-7.853-8.336-1.208-9.786,6.041-20.66,10.632-29.117,6.766-11.84,15.585-24.888,13.411-39.024a23.3,23.3,0,0,0-12.565-17.4c-3.5-1.812-10.632-4.833-9.786-9.3a.748.748,0,0,0,.242-.483c1.812-7.007-7.853-9.3-10.39-3.02-.242.725-.242,1.208-.483,1.812-6.766,23.2-17.035,45.548-28.754,66.811l-.725,1.087c-8.336,15.585-22.109,32.983-40.836,36-6.766.967-14.619-.483-19.451-5.558-5.316-5.074-6.524-13.29-6.282-20.176a72.551,72.551,0,0,1,2.3-15.1c22.109,7.249,47.843-4.712,56.663-26.459,3.987-10.028,3.262-23.076-7.37-28.633-9.061-4.712-19.935-2.537-28.029,3.02-8.82,6.282-15.585,15.344-20.9,24.888-5.558,9.544-10.028,20.055-12.082,30.687a3.344,3.344,0,0,0-.121,1.087,4.729,4.729,0,0,0-.966,1.208c-6.524,11.357-13.894,24.888-25.13,32.741-3.262,2.3-7.37,4.47-11.6,2.779-4.229-1.571-6.041-5.558-6.282-9.786-.483-6.524,1.208-13.048,3.262-19.089a201.058,201.058,0,0,1,7.611-20.055c5.558-13.531,11.357-26.7,17.156-40.232.967-2.054,1.812-4.229,2.779-6.282H580.52c6.766,0,6.766-10.753,0-10.753H565.176c4.229-9.544,8.336-18.847,12.807-28.392,1.208-2.537.725-5.8-2.054-7.249-2.054-1.45-6.041-.725-7.249,1.812-5.074,11.115-10.269,22.593-15.344,33.708H537.751c-7.007,0-7.007,10.753,0,10.753h10.873c-6.766,15.1-13.048,29.962-19.21,45.064-5.8,13.531-13.29,29.962-10.269,45.064,2.537,13.531,16.914,19.814,29,14.135,7.249-3.262,13.048-9.3,17.881-15.585,2.416-3.141,4.712-6.4,6.887-9.665a40.824,40.824,0,0,0,3.02,9.907c4.229,9.061,13.048,14.86,22.713,16.31,24.4,3.624,44.581-15.344,56.663-35.037a10.564,10.564,0,0,0,.966-1.208c11.357-20.176,21.868-41.2,29.237-63.308a3.335,3.335,0,0,1,.966.725c4.591,3.5,11.357,5.074,13.894,10.753,3.5,7.853-.725,16.552-4.47,23.438-2.779,5.316-6.041,10.753-9.061,16.069-5.557,10.511-12.806,24.163-8.82,36.245,4.349,12.806,19.21,16.31,30.687,11.6,17.4-7.007,29.479-25.13,38.3-40.957C750.387,159.533,741.2,153.976,737.943,160.017ZM602.629,122.322c4.833-5.8,11.115-12.323,18.847-13.29,7.249-1.208,13.048,2.779,12.323,10.269-.966,9.3-7.853,17.4-15.344,22.109a35,35,0,0,1-29.479,4.229A91.021,91.021,0,0,1,602.629,122.322Zm577.5,38.9c-5.074,9.3-10.873,18.606-18.364,26.1-4.47,4.47-12.082,11.6-18.364,6.766a13.212,13.212,0,0,0-1.812-.967c9.665-10.873,16.068-25.251,21.747-38.3,3.745-9.061,7.611-18.364,10.028-27.908,1.812-7.853,3.02-17.639-2.054-24.888-3.987-5.558-13.29-.242-9.3,5.558,3.745,5.316,1.812,12.806.483,18.606-2.3,8.095-9.3,24.888-9.3,25.13-5.557,13.29-12.323,27.425-22.472,37.695-6.041,6.041-16.914,11.6-23.922,3.262-6.041-6.766-2.779-18.606,0-26.1,3.262-8.578,7.007-17.156,10.39-25.613q6.887-16.673,14.135-32.983a4.957,4.957,0,0,0,.242-4.833,5.641,5.641,0,0,0-6.041-3.02,5.5,5.5,0,0,0-3.5,2.3c-7.249,16.069-21.384,49.051-21.384,49.293-5.557,13.29-12.323,27.425-22.472,37.695-6.282,6.282-17.881,11.84-24.646,2.779-5.074-7.249-2.054-18.606.725-26.1,3.02-7.853,7.249-16.552,10.873-24.888,4.833-11.115,10.028-22.109,15.1-33.224,1.208-2.779.725-5.8-2.054-7.491-2.054-1.45-6.041-.725-7.249,1.812-5.074,11.115-10.269,22.351-15.1,33.466-3.625,7.974-7.611,16.189-10.753,24.526a6.414,6.414,0,0,0-1.087,1.329c-5.074,9.3-10.873,18.606-18.364,26.1-4.349,4.47-11.719,11.478-17.881,7.249a109,109,0,0,0,13.652-21.022c5.557-11.115,10.269-23.2,12.565-35.52,1.571-8.82,2.3-18.364-1.571-26.7-6.766-14.619-24.888-15.344-36.849-7.249-17.156,11.84-27.425,33.708-33.949,52.8-.242.846-.6,1.691-.846,2.537a4.608,4.608,0,0,0-1.933,1.812c-6.282,10.511-12.565,21.143-21.626,29.479-5.8,5.558-15.1,9.786-21.626,3.745-2.054-1.812-2.779-4.229-3.02-7.007-.242-4.47.725-8.82,1.812-13.048,3.262-12.082,8.578-23.68,13.652-35.157,6.041-13.773,12.806-27.425,17.639-41.682,3.5-10.269,6.041-21.868,3.262-32.5-4.833-18.606-27.425-23.2-42.286-13.531-7.37,4.591-13.29,11.357-18.122,18.847a49.584,49.584,0,0,0-7.37-23.922c-12.565-19.814-40.594-23.2-60.408-13.29-18.364,9.061-28.754,32.379-25.492,52.313,2.537,15.827,14.377,26.942,30.2,28.633,14.377,1.45,29.479-6.524,36-19.331,3.262-6.282-6.041-11.84-9.3-5.558-4.591,9.3-14.619,14.619-25.13,14.135-11.357-.725-19.21-8.82-21.143-19.814-2.779-15.585,6.041-33.949,20.176-41.2C841.6,34.61,864.075,37.751,872.894,53.7c9.061,16.552,4.229,37.936-2.779,54.367-12.565,30.929-27.667,60.65-40.836,91.337-1.208,2.779-.725,5.8,1.812,7.491,2.3,1.45,6.282.725,7.37-1.812,13.652-31.412,38.057-85.538,43.615-98.1s13.894-33.708,27.425-44.7c6.041-4.833,13.652-7.007,20.9-3.987,6.041,2.537,8.578,8.578,8.578,15.827,0,12.565-5.316,25.13-10.39,36.486-5.8,13.531-12.082,26.7-17.639,40.232-6.282,14.86-18.122,41.8,0,53.521,10.632,7.007,22.955,3.02,32.016-4.712a85.394,85.394,0,0,0,13.773-15.585c.6,10.873,4.953,20.66,17.156,24.4.242,0,1.45.242,1.571.242,9.3,1.933,17.518-1.329,24.526-7.007,14.86,11.115,29.6-1.087,40.352-15.344a23.694,23.694,0,0,0,6.041,13.048c9.3,10.511,24.4,8.578,34.312.967a65.245,65.245,0,0,0,12.323-12.807,23.764,23.764,0,0,0,5.8,11.84c9.544,10.753,24.888,8.336,35.037.483l.362-.362a3.258,3.258,0,0,0,1.329,1.812c22.472,17.639,44.581-18.606,53.884-34.916C1192.936,160.742,1183.633,155.184,1180.129,161.225ZM998.3,189.133c-5.074,5.316-12.323,11.357-20.418,9.544-14.619-3.987-10.632-23.2-7.37-34.191a150.977,150.977,0,0,1,11.115-26.459c3.987-7.732,8.578-15.1,14.86-20.9,6.282-5.558,14.86-9.3,20.176-7.007,6.041,3.02,8.578,10.511,7.611,21.143-.966,9.786-4.591,19.572-8.336,28.875C1011.591,170.286,1006.033,180.8,998.3,189.133Zm199.226,3.5c-1.812,0-3.987.242-5.316,1.571-2.779,2.779-3.987,6.524-2.779,9.786a6.92,6.92,0,0,0,10.39,3.745,9.617,9.617,0,0,0,3.5-10.269A5.757,5.757,0,0,0,1197.527,192.637ZM1261.438,39.08c-28.029,60.287-32.258,73.214-54.367,123.232-1.208,2.779-1.45,6.041,1.45,7.732,2.054,1.45,6.524.967,8.336-3.262,7.249-16.069,1.571-3.987,22.472-52.072,4.591-10.873,9.786-21.868,14.377-32.741,5.557-12.565,11.115-24.888,16.914-37.211C1273.52,38.476,1264.217,32.8,1261.438,39.08Z" transform="translate(313.271 1711.266)" fill="#ba242a"/>
  </g>
</svg>
